# xmcd
#
# Track frame offsets:
#	150
#	10970
#	37025
#	63145
#	100495
#	121240
#	132650
#	166840
#	186930
#	228545
#	252295
#	292690
#
# Disc length: 4098 seconds
#
# Revision: 1
# Processed by: cddbd v1.5.1PL2 Copyright (c) Steve Scherf et al.
# Submitted via: EasyCDDAExtractor 8.0.2.1
#
DISCID=a410000c
DTITLE=Black Sabbath - Palasport Reggio Emilia 07-12-87 Disc 1
DYEAR=1987
DGENRE=Hard Rock
TTITLE0=Supertzar
TTITLE1=Neon Knights
TTITLE2=Children Of The Sea
TTITLE3=War Pigs
TTITLE4=Die Young
TTITLE5=Drum Solo
TTITLE6=Iron Man
TTITLE7=Born To Loose
TTITLE8=Black Sabbath
TTITLE9=Heaven and Hell
TTITLE10=Guitar Solo
TTITLE11=Heaven and Hell Reprise
EXTD=
EXTT0=
EXTT1=
EXTT2=
EXTT3=
EXTT4=
EXTT5=
EXTT6=
EXTT7=
EXTT8=
EXTT9=
EXTT10=
EXTT11=
PLAYORDER=
